<?xml version="1.0" encoding="UTF-8" standalone="no"?>
<!-- Created with Inkscape (http://www.inkscape.org/) -->

<svg
   xmlns:dc="http://purl.org/dc/elements/1.1/"
   xmlns:cc="http://creativecommons.org/ns#"
   xmlns:rdf="http://www.w3.org/1999/02/22-rdf-syntax-ns#"
   xmlns:svg="http://www.w3.org/2000/svg"
   xmlns="http://www.w3.org/2000/svg"
   xmlns:sodipodi="http://sodipodi.sourceforge.net/DTD/sodipodi-0.dtd"
   xmlns:inkscape="http://www.inkscape.org/namespaces/inkscape"
   width="135.87399mm"
   height="67.898209mm"
   viewBox="0 0 135.87399 67.898209"
   version="1.1"
   id="svg8"
   inkscape:version="0.92.3 (2405546, 2018-03-11)"
   sodipodi:docname="jam.svg">
  <defs
     id="defs2" />
  <sodipodi:namedview
     id="base"
     pagecolor="#ffffff"
     bordercolor="#666666"
     borderopacity="1.0"
     inkscape:pageopacity="0.0"
     inkscape:pageshadow="2"
     inkscape:zoom="0.7"
     inkscape:cx="22.275723"
     inkscape:cy="-21.603074"
     inkscape:document-units="mm"
     inkscape:current-layer="layer1"
     showgrid="false"
     inkscape:window-width="3726"
     inkscape:window-height="2049"
     inkscape:window-x="114"
     inkscape:window-y="55"
     inkscape:window-maximized="1"
     fit-margin-top="0"
     fit-margin-left="0"
     fit-margin-right="0"
     fit-margin-bottom="0" />
  <metadata
     id="metadata5">
    <rdf:RDF>
      <cc:Work
         rdf:about="">
        <dc:format>image/svg+xml</dc:format>
        <dc:type
           rdf:resource="http://purl.org/dc/dcmitype/StillImage" />
        <dc:title></dc:title>
      </cc:Work>
    </rdf:RDF>
  </metadata>
  <g
     inkscape:label="Layer 1"
     inkscape:groupmode="layer"
     id="layer1"
     transform="translate(-17.073525,-75.21931)">
    <g
       id="jar">
      <path
         inkscape:connector-curvature="0"
         id="rect826"
         d="m 22.539486,92.130151 c -1.899771,2.293809 -3.031461,5.193996 -3.031461,8.355369 v 26.71892 c 0,7.46717 6.312112,13.47858 14.152625,13.47858 h 21.030593 c 7.840514,0 14.152499,-6.01141 14.152499,-13.47858 v -26.71892 c 0,-3.161339 -1.131604,-6.061474 -3.031335,-8.355274 A 42.439957,15.209208 0 0 1 44.175941,94.27541 42.439957,15.209208 0 0 1 22.539486,92.130151 Z"
         style="opacity:1;fill:none;fill-opacity:1;stroke:#1c1c1c;stroke-width:4.86899996;stroke-linecap:butt;stroke-linejoin:miter;stroke-miterlimit:4;stroke-dasharray:none;stroke-opacity:0.9881797" />
      <ellipse
         ry="5.2072887"
         rx="24.472193"
         cy="83.741173"
         cx="44.413021"
         id="path851-3"
         style="opacity:1;fill:#1b1c1e;fill-opacity:1;stroke:#1b1b1b;stroke-width:3.7912879;stroke-linecap:butt;stroke-linejoin:miter;stroke-miterlimit:4;stroke-dasharray:none;stroke-opacity:0.98823529" />
      <ellipse
         ry="5.2072887"
         rx="24.472193"
         cy="82.322243"
         cx="44.199295"
         id="path851"
         style="opacity:1;fill:#ffc300;fill-opacity:0.98823529;stroke:#1b1b1b;stroke-width:3.7912879;stroke-linecap:butt;stroke-linejoin:miter;stroke-miterlimit:4;stroke-dasharray:none;stroke-opacity:0.98823529" />
      <path
         sodipodi:nodetypes="cssssssccc"
         inkscape:connector-curvature="0"
         id="rect826-6"
         d="m 26.861116,101.23417 c -1.520317,1.62124 -2.425959,3.67106 -2.425959,5.90549 v 18.88466 c 0,5.27772 5.051337,9.52653 11.325792,9.52653 h 16.829965 c 6.27446,0 11.325696,-4.24881 11.325696,-9.52653 v -18.88466 c 0,-2.2344 -0.905577,-4.28419 -2.425858,-5.90543 -6.254499,2.52867 -10.073097,-2.011618 -16.170048,-2.007292 -6.096973,-0.0044 -13.658662,6.589962 -18.459588,2.007232 z"
         style="opacity:1;fill:#b60000;fill-opacity:1;stroke:none;stroke-width:3.66206074;stroke-linecap:butt;stroke-linejoin:miter;stroke-miterlimit:4;stroke-dasharray:none;stroke-opacity:0.9881797" />
      <rect
         ry="1.7147923"
         rx="0.8454873"
         y="108.28284"
         x="28.657072"
         height="9.2578907"
         width="2.1909626"
         id="rect883"
         style="opacity:1;fill:#ffffff;fill-opacity:1;stroke:none;stroke-width:2.4272306;stroke-linecap:butt;stroke-linejoin:miter;stroke-miterlimit:4;stroke-dasharray:none;stroke-opacity:0.9881797" />
      <rect
         ry="0.76714385"
         rx="0.8454873"
         y="120.89032"
         x="28.671469"
         height="4.1416874"
         width="2.1909626"
         id="rect883-7"
         style="opacity:1;fill:#ffffff;fill-opacity:1;stroke:none;stroke-width:1.6234678;stroke-linecap:butt;stroke-linejoin:miter;stroke-miterlimit:4;stroke-dasharray:none;stroke-opacity:0.9881797" />
    </g>
    <g
       aria-label="Jam"
       style="font-style:normal;font-variant:normal;font-weight:normal;font-stretch:normal;font-size:32.55843353px;line-height:125%;font-family:Montserrat;-inkscape-font-specification:Montserrat;letter-spacing:0px;word-spacing:0px;fill:#373737;fill-opacity:1;stroke:none;stroke-width:2.44188237px;stroke-linecap:butt;stroke-linejoin:miter;stroke-opacity:1"
       id="text945">
      <path
         d="m 82.070685,99.070962 v -3.451194 h 11.069868 v 15.009442 q 0,3.97212 -2.018623,5.95819 -2.018623,1.98606 -5.176791,1.98606 -3.972129,0 -6.772154,-2.80002 L 81.3544,112.7455 q 2.213973,2.1163 4.330272,2.1163 1.497687,0 2.539557,-1.00931 1.074429,-1.00931 1.074429,-3.02793 V 99.070962 Z"
         style="font-style:normal;font-variant:normal;font-weight:normal;font-stretch:normal;font-family:Montserrat;-inkscape-font-specification:Montserrat;fill:#373737;fill-opacity:1;stroke-width:2.44188237px"
         id="path987" />
      <path
         d="m 112.5118,118.37811 h -3.32096 v -2.31165 q -2.14885,2.57212 -5.76284,2.57212 -2.70235,0 -4.493064,-1.53025 -1.758156,-1.53024 -1.758156,-4.0698 0,-2.57212 1.88839,-3.8419 1.88839,-1.26977 5.11167,-1.26977 h 4.72098 v -0.65117 q 0,-3.4512 -3.8419,-3.4512 -2.40932,0 -5.014,1.75816 l -1.627919,-2.27909 q 3.158169,-2.507 7.162859,-2.507 3.06049,0 4.98144,1.5628 1.9535,1.53025 1.9535,4.85121 z m -3.64654,-6.44657 v -1.46513 h -4.10236 q -3.93958,0 -3.93958,2.47444 0,1.26978 0.97676,1.95351 0.97675,0.65117 2.70235,0.65117 1.75815,0 3.06049,-0.97675 1.30234,-0.97676 1.30234,-2.63724 z"
         style="font-style:normal;font-variant:normal;font-weight:normal;font-stretch:normal;font-family:Montserrat;-inkscape-font-specification:Montserrat;fill:#373737;fill-opacity:1;stroke-width:2.44188237px"
         id="path989" />
      <path
         d="m 121.26646,109.00128 v 9.37683 h -3.64655 v -17.32108 h 3.64655 v 3.15816 q 0.7814,-1.59536 2.34421,-2.507 1.59536,-0.91163 3.41863,-0.91163 4.10236,0 5.56749,3.38608 2.57212,-3.38608 6.41402,-3.38608 2.93025,0 4.72097,1.79071 1.82327,1.79072 1.82327,5.17679 v 10.61405 h -3.64654 v -9.50706 q 0,-4.78609 -3.97213,-4.78609 -1.85583,0 -3.25585,1.20466 -1.36745,1.17211 -1.43257,3.4512 v 9.63729 h -3.64654 v -9.50706 q 0,-2.47444 -0.87908,-3.61399 -0.87908,-1.1721 -2.76747,-1.1721 -1.88839,0 -3.2884,1.26978 -1.40001,1.23722 -1.40001,3.64654 z"
         style="font-style:normal;font-variant:normal;font-weight:normal;font-stretch:normal;font-family:Montserrat;-inkscape-font-specification:Montserrat;fill:#373737;fill-opacity:1;stroke-width:2.44188237px"
         id="path991" />
    </g>
    <g
       aria-label="CFP Portal"
       style="font-style:normal;font-variant:normal;font-weight:normal;font-stretch:normal;font-size:12.8654089px;line-height:125%;font-family:Montserrat;-inkscape-font-specification:Montserrat;letter-spacing:0px;word-spacing:0px;fill:#373737;fill-opacity:1;stroke:none;stroke-width:0.96490562px;stroke-linecap:butt;stroke-linejoin:miter;stroke-opacity:1"
       id="text949">
      <path
         d="m 83.63194,130.12218 q 0.78479,0 1.350868,-0.25731 0.566078,-0.27017 1.183618,-0.84911 l 0.977771,1.0035 q -1.428061,1.58244 -3.473661,1.58244 -2.032734,0 -3.383602,-1.31227 -1.338003,-1.31227 -1.338003,-3.31927 0,-2.00701 1.363734,-3.34501 1.376598,-1.338 3.460795,-1.338 2.097061,0 3.499391,1.54385 l -0.964906,1.05496 q -0.64327,-0.61754 -1.222214,-0.86198 -0.566078,-0.24445 -1.338002,-0.24445 -1.363733,0 -2.290043,0.88772 -0.926309,0.87484 -0.926309,2.25144 0,1.36374 0.913444,2.29005 0.926309,0.91344 2.187119,0.91344 z"
         style="font-style:normal;font-variant:normal;font-weight:normal;font-stretch:normal;font-family:Montserrat;-inkscape-font-specification:Montserrat;fill:#373737;fill-opacity:1;stroke-width:0.96490562px"
         id="path968" />
      <path
         d="m 90.519156,123.92105 v 2.47016 h 3.988276 v 1.40233 h -3.988276 v 3.70524 h -1.518119 v -8.99292 h 5.995281 l -0.01287,1.41519 z"
         style="font-style:normal;font-variant:normal;font-weight:normal;font-stretch:normal;font-family:Montserrat;-inkscape-font-specification:Montserrat;fill:#373737;fill-opacity:1;stroke-width:0.96490562px"
         id="path970" />
      <path
         d="m 99.853211,122.50586 q 2.045599,0 2.984779,0.78479 0.93917,0.78479 0.93917,2.4187 0,1.6339 -0.9649,2.39296 -0.95204,0.75906 -2.933318,0.75906 h -1.59531 v 2.63741 h -1.518119 v -8.99292 z m 0.192979,4.97891 q 1.26081,0 1.7111,-0.47602 0.46316,-0.48888 0.46316,-1.41519 0,-0.93918 -0.57895,-1.32514 -0.57894,-0.38596 -1.814019,-0.38596 h -1.543849 v 3.60231 z"
         style="font-style:normal;font-variant:normal;font-weight:normal;font-stretch:normal;font-family:Montserrat;-inkscape-font-specification:Montserrat;fill:#373737;fill-opacity:1;stroke-width:0.96490562px"
         id="path972" />
      <path
         d="m 112.16581,122.50586 q 2.0456,0 2.98477,0.78479 0.93918,0.78479 0.93918,2.4187 0,1.6339 -0.96491,2.39296 -0.95204,0.75906 -2.93331,0.75906 h -1.59531 v 2.63741 h -1.51812 v -8.99292 z m 0.19298,4.97891 q 1.26081,0 1.7111,-0.47602 0.46315,-0.48888 0.46315,-1.41519 0,-0.93918 -0.57894,-1.32514 -0.57894,-0.38596 -1.81402,-0.38596 h -1.54385 v 3.60231 z"
         style="font-style:normal;font-variant:normal;font-weight:normal;font-stretch:normal;font-family:Montserrat;-inkscape-font-specification:Montserrat;fill:#373737;fill-opacity:1;stroke-width:0.96490562px"
         id="path974" />
      <path
         d="m 119.1869,129.69762 q 0.61754,0.61754 1.55672,0.61754 0.93917,0 1.54385,-0.61754 0.61754,-0.6304 0.61754,-1.62104 0,-0.99064 -0.61754,-1.60818 -0.60468,-0.6304 -1.54385,-0.6304 -0.93918,0 -1.55672,0.6304 -0.60467,0.61754 -0.60467,1.60818 0,0.99064 0.60467,1.62104 z m 4.1298,0.88772 q -1.02923,1.01636 -2.57308,1.01636 -1.54385,0 -2.57308,-1.01636 -1.02924,-1.02924 -1.02924,-2.50876 0,-1.47952 1.02924,-2.49589 1.02923,-1.02923 2.57308,-1.02923 1.54385,0 2.57308,1.02923 1.02923,1.01637 1.02923,2.49589 0,1.47952 -1.02923,2.50876 z"
         style="font-style:normal;font-variant:normal;font-weight:normal;font-stretch:normal;font-family:Montserrat;-inkscape-font-specification:Montserrat;fill:#373737;fill-opacity:1;stroke-width:0.96490562px"
         id="path976" />
      <path
         d="m 129.57371,126.00525 q -1.06783,0 -1.60817,0.69473 -0.54035,0.69473 -0.54035,1.86549 v 2.93331 h -1.44093 v -6.8444 h 1.44093 v 1.3766 q 0.34737,-0.64327 0.93917,-1.05496 0.60468,-0.4117 1.27368,-0.42456 l 0.0129,1.45379 q -0.0386,0 -0.0772,0 z"
         style="font-style:normal;font-variant:normal;font-weight:normal;font-stretch:normal;font-family:Montserrat;-inkscape-font-specification:Montserrat;fill:#373737;fill-opacity:1;stroke-width:0.96490562px"
         id="path978" />
      <path
         d="m 132.86062,125.81227 v 3.47366 q 0,0.48888 0.25731,0.78479 0.25731,0.28304 0.72046,0.28304 0.46316,0 0.88772,-0.45029 l 0.59181,1.01637 q -0.75906,0.68186 -1.68537,0.68186 -0.91345,0 -1.56958,-0.6304 -0.64327,-0.64327 -0.64327,-1.72397 v -3.43506 h -0.86199 v -1.15789 h 0.86199 v -2.14852 h 1.44092 v 2.14852 h 1.80116 v 1.15789 z"
         style="font-style:normal;font-variant:normal;font-weight:normal;font-stretch:normal;font-family:Montserrat;-inkscape-font-specification:Montserrat;fill:#373737;fill-opacity:1;stroke-width:0.96490562px"
         id="path980" />
      <path
         d="m 142.00753,131.49878 h -1.31228 v -0.91344 q -0.84911,1.01636 -2.27717,1.01636 -1.06783,0 -1.77543,-0.60467 -0.69473,-0.60468 -0.69473,-1.60818 0,-1.01637 0.74619,-1.51812 0.7462,-0.50175 2.01987,-0.50175 h 1.86549 v -0.25731 q 0,-1.36373 -1.51812,-1.36373 -0.95204,0 -1.98128,0.69473 l -0.64327,-0.90058 q 1.24795,-0.99063 2.83039,-0.99063 1.20935,0 1.96841,0.61754 0.77193,0.60467 0.77193,1.91694 z m -1.44093,-2.54735 v -0.57895 h -1.62104 q -1.55672,0 -1.55672,0.97778 0,0.50175 0.38597,0.77192 0.38596,0.25731 1.06783,0.25731 0.69473,0 1.20934,-0.38596 0.51462,-0.38597 0.51462,-1.0421 z"
         style="font-style:normal;font-variant:normal;font-weight:normal;font-stretch:normal;font-family:Montserrat;-inkscape-font-specification:Montserrat;fill:#373737;fill-opacity:1;stroke-width:0.96490562px"
         id="path982" />
      <path
         d="m 145.46692,131.49878 h -1.44093 v -9.54613 h 1.44093 z"
         style="font-style:normal;font-variant:normal;font-weight:normal;font-stretch:normal;font-family:Montserrat;-inkscape-font-specification:Montserrat;fill:#373737;fill-opacity:1;stroke-width:0.96490562px"
         id="path984" />
    </g>
    <g
       aria-label="TM"
       style="font-style:normal;font-variant:normal;font-weight:normal;font-stretch:normal;font-size:5.69073153px;line-height:125%;font-family:BlackChancery;-inkscape-font-specification:BlackChancery;letter-spacing:0px;word-spacing:0px;fill:#373737;fill-opacity:1;stroke:none;stroke-width:0.42680487px;stroke-linecap:butt;stroke-linejoin:miter;stroke-opacity:1"
       id="text953">
      <path
         d="m 146.52544,97.315954 v 3.363226 h -0.67151 v -3.363226 h -1.20643 v -0.614599 h 3.08437 v 0.614599 z"
         style="font-style:normal;font-variant:normal;font-weight:normal;font-stretch:normal;font-family:Montserrat;-inkscape-font-specification:Montserrat;fill:#373737;fill-opacity:1;stroke-width:0.42680487px"
         id="path963" />
      <path
         d="m 149.12904,100.67918 h -0.67151 v -3.977825 h 1.0471 l 1.20074,2.498231 1.20074,-2.498231 h 1.04141 v 3.977825 h -0.67151 v -3.107143 l -1.38854,2.760003 h -0.37558 l -1.38285,-2.760003 z"
         style="font-style:normal;font-variant:normal;font-weight:normal;font-stretch:normal;font-family:Montserrat;-inkscape-font-specification:Montserrat;fill:#373737;fill-opacity:1;stroke-width:0.42680487px"
         id="path965" />
    </g>
  </g>
</svg>
